HIERARCHY
ROOT hips
{
	OFFSET 0.000000 104.274902 0.000000
	CHANNELS 6 Xposition Yposition Zposition Xrotation Yrotation Zrotation
	JOINT spine
	{
		OFFSET 0.000000 10.181549 0.131524
		CHANNELS 6 Xposition Yposition Zposition Xrotation Yrotation Zrotation
		JOINT chest
		{
			OFFSET 0.000000 9.893990 -1.470706
			CHANNELS 3 Xrotation Yrotation Zrotation
			JOINT upperChest
			{
				OFFSET 0.000000 9.220787 -1.370637
				CHANNELS 3 Xrotation Yrotation Zrotation
				JOINT neck
				{
					OFFSET 0.000000 16.740372 -2.049022
					CHANNELS 6 Xposition Yposition Zposition Xrotation Yrotation Zrotation
					JOINT head
					{
						OFFSET 0.000000 9.617859 1.684976
						CHANNELS 6 Xposition Yposition Zposition Xrotation Yrotation Zrotation
						JOINT headEnd
						{
							OFFSET 0.000000 22.037384 7.501072
							CHANNELS 6 Xposition Yposition Zposition Xrotation Yrotation Zrotation
							End Site
							{
								OFFSET 0.000000 23.106567 -2.828246
							}
						}
					}
				}
				JOINT rightShoulder
				{
					OFFSET -4.570000 11.014877 -2.160840
					CHANNELS 6 Xposition Yposition Zposition Xrotation Yrotation Zrotation
					JOINT rightUpperArm
					{
						OFFSET -10.592867 -0.524796 -2.232105
						CHANNELS 3 Xrotation Yrotation Zrotation
						JOINT rightLowerArm
						{
							OFFSET -27.841497 0.000000 -0.000002
							CHANNELS 3 Xrotation Yrotation Zrotation
							JOINT rightHand
							{
								OFFSET -28.328812 0.000000 -0.000001
								CHANNELS 3 Xrotation Yrotation Zrotation
								JOINT rightThumbProximal
								{
									OFFSET -2.464798 -1.573990 2.681911
									CHANNELS 6 Xposition Yposition Zposition Xrotation Yrotation Zrotation
									JOINT rightThumbIntermediate
									{
										OFFSET -3.244781 -1.873383 1.873376
										CHANNELS 3 Xrotation Yrotation Zrotation
										JOINT rightThumbDistal
										{
											OFFSET -2.646263 -1.527817 1.527818
											CHANNELS 6 Xposition Yposition Zposition Xrotation Yrotation Zrotation
											JOINT rightHandThumb4
											{
												OFFSET -1.994591 -1.151581 1.151575
												CHANNELS 6 Xposition Yposition Zposition Xrotation Yrotation Zrotation
												End Site
												{
													OFFSET -1.860176 -1.142715 1.365483
												}
											}
										}
									}
								}
								JOINT rightIndexProximal
								{
									OFFSET -9.108299 -0.517883 2.259803
									CHANNELS 6 Xposition Yposition Zposition Xrotation Yrotation Zrotation
									JOINT rightIndexIntermediate
									{
										OFFSET -3.699997 0.000000 0.000000
										CHANNELS 3 Xrotation Yrotation Zrotation
										JOINT rightIndexDistal
										{
											OFFSET -2.850006 0.000000 0.000000
											CHANNELS 3 Xrotation Yrotation Zrotation
											JOINT rightHandIndex4
											{
												OFFSET -2.772194 0.000000 0.000000
												CHANNELS 3 Xrotation Yrotation Zrotation
												End Site
												{
													OFFSET -2.772202 0.000000 -0.000484
												}
											}
										}
									}
								}
								JOINT rightMiddleProximal
								{
									OFFSET -9.532501 0.000000 -0.000000
									CHANNELS 6 Xposition Yposition Zposition Xrotation Yrotation Zrotation
									JOINT rightMiddleIntermediate
									{
										OFFSET -3.699997 0.000000 0.000000
										CHANNELS 3 Xrotation Yrotation Zrotation
										JOINT rightMiddleDistal
										{
											OFFSET -2.949997 0.000000 0.000000
											CHANNELS 3 Xrotation Yrotation Zrotation
											JOINT rightHandMiddle4
											{
												OFFSET -2.946594 0.000000 0.000000
												CHANNELS 3 Xrotation Yrotation Zrotation
												End Site
												{
													OFFSET -2.946602 0.000000 -0.000982
												}
											}
										}
									}
								}
								JOINT rightRingProximal
								{
									OFFSET -9.103600 -0.043106 -1.865100
									CHANNELS 6 Xposition Yposition Zposition Xrotation Yrotation Zrotation
									JOINT rightRingIntermediate
									{
										OFFSET -3.379303 0.000000 0.000000
										CHANNELS 3 Xrotation Yrotation Zrotation
										JOINT rightRingDistal
										{
											OFFSET -2.889694 0.000000 0.000000
											CHANNELS 3 Xrotation Yrotation Zrotation
											JOINT rightHandRing4
											{
												OFFSET -2.638802 0.000000 0.000000
												CHANNELS 3 Xrotation Yrotation Zrotation
												End Site
												{
													OFFSET -2.638802 0.000000 0.004218
												}
											}
										}
									}
								}
								JOINT rightLittleProximal
								{
									OFFSET -8.076698 -0.486725 -3.806299
									CHANNELS 6 Xposition Yposition Zposition Xrotation Yrotation Zrotation
									JOINT rightLittleIntermediate
									{
										OFFSET -3.600006 0.000000 0.000000
										CHANNELS 3 Xrotation Yrotation Zrotation
										JOINT rightLittleDistal
										{
											OFFSET -2.099998 0.000000 0.000000
											CHANNELS 3 Xrotation Yrotation Zrotation
											JOINT rightHandPinky4
											{
												OFFSET -2.115791 0.000000 0.000000
												CHANNELS 3 Xrotation Yrotation Zrotation
												End Site
												{
													OFFSET -2.115799 0.000000 0.000174
												}
											}
										}
									}
								}
							}
						}
					}
				}
				JOINT leftShoulder
				{
					OFFSET 4.570400 11.014679 -2.160816
					CHANNELS 6 Xposition Yposition Zposition Xrotation Yrotation Zrotation
					JOINT leftUpperArm
					{
						OFFSET 10.592373 -0.524597 -2.232116
						CHANNELS 3 Xrotation Yrotation Zrotation
						JOINT leftLowerArm
						{
							OFFSET 27.841488 0.000000 0.000001
							CHANNELS 3 Xrotation Yrotation Zrotation
							JOINT leftHand
							{
								OFFSET 28.328808 0.000000 -0.000000
								CHANNELS 3 Xrotation Yrotation Zrotation
								JOINT leftThumbProximal
								{
									OFFSET 2.466103 -1.576202 2.681698
									CHANNELS 6 Xposition Yposition Zposition Xrotation Yrotation Zrotation
									JOINT leftThumbIntermediate
									{
										OFFSET 3.243317 -1.872528 1.872530
										CHANNELS 3 Xrotation Yrotation Zrotation
										JOINT leftThumbDistal
										{
											OFFSET 2.647881 -1.528763 1.528754
											CHANNELS 6 Xposition Yposition Zposition Xrotation Yrotation Zrotation
											JOINT leftHandThumb4
											{
												OFFSET 1.998924 -1.154083 1.154080
												CHANNELS 6 Xposition Yposition Zposition Xrotation Yrotation Zrotation
												End Site
												{
													OFFSET 1.884041 -1.149155 1.337651
												}
											}
										}
									}
								}
								JOINT leftIndexProximal
								{
									OFFSET 9.109299 -0.518005 2.259900
									CHANNELS 6 Xposition Yposition Zposition Xrotation Yrotation Zrotation
									JOINT leftIndexIntermediate
									{
										OFFSET 3.699997 0.000000 0.000000
										CHANNELS 3 Xrotation Yrotation Zrotation
										JOINT leftIndexDistal
										{
											OFFSET 2.850006 0.000000 0.000000
											CHANNELS 3 Xrotation Yrotation Zrotation
											JOINT leftHandIndex4
											{
												OFFSET 2.774895 0.000000 0.000000
												CHANNELS 3 Xrotation Yrotation Zrotation
												End Site
												{
													OFFSET 2.774902 0.000000 -0.000072
												}
											}
										}
									}
								}
								JOINT leftMiddleProximal
								{
									OFFSET 9.533401 0.000000 0.000000
									CHANNELS 6 Xposition Yposition Zposition Xrotation Yrotation Zrotation
									JOINT leftMiddleIntermediate
									{
										OFFSET 3.699997 0.000000 0.000000
										CHANNELS 3 Xrotation Yrotation Zrotation
										JOINT leftMiddleDistal
										{
											OFFSET 2.949997 0.000000 0.000000
											CHANNELS 3 Xrotation Yrotation Zrotation
											JOINT leftHandMiddle4
											{
												OFFSET 2.952896 0.000000 0.000000
												CHANNELS 3 Xrotation Yrotation Zrotation
												End Site
												{
													OFFSET 2.952904 0.000000 0.000165
												}
											}
										}
									}
								}
								JOINT leftRingProximal
								{
									OFFSET 9.104500 -0.042999 -1.865101
									CHANNELS 6 Xposition Yposition Zposition Xrotation Yrotation Zrotation
									JOINT leftRingIntermediate
									{
										OFFSET 3.149994 0.000000 0.000000
										CHANNELS 3 Xrotation Yrotation Zrotation
										JOINT leftRingDistal
										{
											OFFSET 2.950005 0.000000 0.000000
											CHANNELS 3 Xrotation Yrotation Zrotation
											JOINT leftHandRing4
											{
												OFFSET 2.644302 0.000000 0.000000
												CHANNELS 3 Xrotation Yrotation Zrotation
												End Site
												{
													OFFSET 2.644302 0.000000 0.000083
												}
											}
										}
									}
								}
								JOINT leftLittleProximal
								{
									OFFSET 8.077805 -0.486893 -3.806302
									CHANNELS 6 Xposition Yposition Zposition Xrotation Yrotation Zrotation
									JOINT leftLittleIntermediate
									{
										OFFSET 3.600006 0.000000 0.000000
										CHANNELS 3 Xrotation Yrotation Zrotation
										JOINT leftLittleDistal
										{
											OFFSET 2.099998 0.000000 0.000000
											CHANNELS 3 Xrotation Yrotation Zrotation
											JOINT leftHandPinky4
											{
												OFFSET 2.125496 0.000000 0.000000
												CHANNELS 3 Xrotation Yrotation Zrotation
												End Site
												{
													OFFSET 2.125504 0.000000 -0.001254
												}
											}
										}
									}
								}
							}
						}
					}
				}
			}
		}
	}
	JOINT rightUpperLeg
	{
		OFFSET -8.207800 -6.751701 -1.599544
		CHANNELS 6 Xposition Yposition Zposition Xrotation Yrotation Zrotation
		JOINT rightLowerLeg
		{
			OFFSET 0.000004 -44.370152 0.345934
			CHANNELS 3 Xrotation Yrotation Zrotation
			JOINT rightFoot
			{
				OFFSET 0.000004 -44.423664 -3.043535
				CHANNELS 3 Xrotation Yrotation Zrotation
				JOINT rightToes
				{
					OFFSET 0.000001 -8.728691 10.710592
					CHANNELS 3 Xrotation Yrotation Zrotation
					JOINT rightToesEnd
					{
						OFFSET 0.000000 -0.000665 9.278101
						CHANNELS 3 Xrotation Yrotation Zrotation
						End Site
						{
							OFFSET 0.000000 -0.000665 9.278103
						}
					}
				}
			}
		}
	}
	JOINT leftUpperLeg
	{
		OFFSET 8.207800 -6.751701 -1.599544
		CHANNELS 6 Xposition Yposition Zposition Xrotation Yrotation Zrotation
		JOINT leftLowerLeg
		{
			OFFSET 0.000004 -44.370037 0.346940
			CHANNELS 3 Xrotation Yrotation Zrotation
			JOINT leftFoot
			{
				OFFSET 0.000004 -44.423611 -3.044388
				CHANNELS 3 Xrotation Yrotation Zrotation
				JOINT leftToes
				{
					OFFSET 0.000001 -8.728690 10.710592
					CHANNELS 3 Xrotation Yrotation Zrotation
					JOINT leftToesEnd
					{
						OFFSET 0.000000 -0.000680 9.278101
						CHANNELS 3 Xrotation Yrotation Zrotation
						End Site
						{
							OFFSET 0.000000 -0.000680 9.278101
						}
					}
				}
			}
		}
	}
}
MOTION
Frames: 4
Frame Time: 0.033333
-31.252455 90.691780 -3.810078 25.596228 -9.903092 8.993205 -0.000001 10.181539 0.131527 10.216646 3.061881 -1.815396 19.132910 5.486028 -4.126050 19.134618 5.628579 -4.026217 0.000003 16.740366 -2.049025 11.709145 8.259446 2.528279 -0.000004 9.617841 1.684959 6.578185 47.497716 -4.513047 -0.000003 22.037369 7.501084 0.000000 -0.000000 0.000000 -4.569999 11.014883 -2.160841 -0.439011 -0.378866 -22.102156 -95.433275 49.501588 60.887960 0.000001 0.002326 -0.000011 2.986216 1.725257 -21.239006 -2.464781 -1.573997 2.681907 -1.849247 -3.581795 -6.586142 4.645043 -8.656818 -0.231314 -2.646272 -1.527794 1.527812 -1.269831 0.126058 -2.098669 -1.994584 -1.151587 1.151582 0.000003 -0.000006 0.000007 -9.108291 -0.517890 2.259804 0.000012 -0.000007 -0.000024 -0.000002 0.000000 0.000054 -0.000008 -0.000005 0.000025 0.000000 -0.000001 0.000002 -9.532500 -0.000006 -0.000003 0.000012 -0.000007 -0.000024 -0.000007 -0.000003 0.000043 0.000002 -0.000004 0.000013 -0.000001 -0.000001 0.000000 -9.103598 -0.043112 -1.865106 0.000012 -0.000008 -0.000024 -0.000006 -0.000003 0.000043 0.000003 -0.000004 0.000013 -0.000002 0.000001 0.000001 -8.076692 -0.486733 -3.806302 0.000013 -0.000018 -0.000023 -0.000008 0.000000 0.000118 0.000006 0.000001 0.000007 -0.000002 -0.000001 0.000003 4.570403 11.014690 -2.160822 2.520882 -9.138029 -1.669944 1.830362 24.449552 -64.680655 -0.000008 -8.725673 -0.000014 -34.895611 -28.326599 -26.716731 2.466092 -1.576232 2.681695 -1.539957 3.690285 6.142354 3.946758 7.971381 0.752832 2.647874 -1.528738 1.528753 -0.575601 1.586264 2.542391 1.998921 -1.154093 1.154068 0.000001 0.000001 0.000001 9.109287 -0.518015 2.259902 0.000000 0.000003 0.000001 -0.000003 0.000002 0.000000 -0.000001 0.000002 0.000000 -0.000000 0.000002 -0.000001 9.533399 -0.000018 -0.000002 -0.000007 -0.001921 0.015978 -0.000001 0.001927 -0.015969 0.000003 0.000004 -0.000009 -0.000001 0.000003 0.000001 9.104496 -0.043008 -1.865100 0.000000 0.000003 0.000001 -0.000001 0.000002 0.000001 0.000000 0.000002 0.000001 -0.000001 0.000001 0.000001 8.077801 -0.486905 -3.806302 -0.018091 4.054259 0.511074 -0.018089 -4.054257 -0.511074 0.000002 0.000003 -0.000011 -0.000001 0.000001 -0.000000 -8.207806 -6.751704 -1.599545 -59.293630 15.980267 -15.985503 53.484076 6.523815 0.391947 -20.888363 1.612956 19.628403 0.763308 -0.000001 0.000004 -0.000000 -0.000000 0.000000 8.207799 -6.751709 -1.599538 -44.655302 -1.825439 29.628377 25.034851 -3.222416 -2.400978 14.850395 -2.903248 -30.135232 -17.517927 -0.000005 0.000010 0.000000 0.000000 0.000000 
-30.770229 93.461052 -2.052822 25.191326 -8.775786 10.187866 -0.000001 10.181559 0.131513 9.476479 2.842094 -1.672218 17.861749 5.129117 -3.908407 17.855721 5.257696 -3.835971 0.000000 16.740379 -2.049021 11.664745 8.526245 1.922449 -0.000002 9.617855 1.684960 7.394974 47.870767 -3.690353 -0.000003 22.037384 7.501066 -0.000000 0.000001 -0.000001 -4.570003 11.014885 -2.160837 -0.392503 0.214805 -24.577102 -93.564555 52.451167 54.795449 0.000001 0.847942 -0.000001 2.207833 1.712817 -17.191417 -2.464798 -1.573996 2.681903 -1.849247 -3.581793 -6.586144 4.645037 -8.656822 -0.231316 -2.646256 -1.527813 1.527814 -1.269827 0.126056 -2.098673 -1.994590 -1.151584 1.151577 -0.000001 -0.000004 -0.000004 -9.108296 -0.517879 2.259799 0.000010 -0.000008 -0.000025 0.000000 0.000001 0.000051 -0.000007 -0.000005 0.000023 0.000002 -0.000001 0.000002 -9.532506 0.000005 -0.000002 0.000010 -0.000007 -0.000025 -0.000005 -0.000001 0.000042 0.000004 -0.000004 0.000013 0.000002 -0.000000 -0.000000 -9.103597 -0.043116 -1.865103 0.000010 -0.000007 -0.000025 -0.000004 -0.000001 0.000043 0.000002 -0.000004 0.000013 0.000000 0.000000 0.000001 -8.076697 -0.486737 -3.806298 0.000008 -0.000017 -0.000023 -0.000009 0.000001 0.000118 0.000006 0.000001 0.000011 -0.000002 0.000000 -0.000001 4.570399 11.014700 -2.160813 2.007745 -6.420106 -0.632095 14.367381 28.302929 -69.280760 -0.000011 -8.219595 0.000005 -34.976921 -26.093298 -28.660734 2.466100 -1.576206 2.681707 -1.539957 3.690285 6.142354 3.946760 7.971377 0.752827 2.647880 -1.528753 1.528748 -0.575601 1.586264 2.542398 1.998920 -1.154090 1.154080 0.000004 -0.000003 0.000002 9.109298 -0.518007 2.259903 0.000000 0.000003 0.000000 -0.000001 0.000001 -0.000000 0.000000 0.000001 -0.000000 -0.000000 0.000004 -0.000001 9.533401 0.000009 0.000009 -0.000006 -0.001924 0.015977 -0.000002 0.001924 -0.015970 0.000003 0.000003 -0.000009 0.000000 -0.000003 0.000001 9.104498 -0.042997 -1.865098 0.000000 0.000003 0.000000 -0.000002 -0.000001 -0.000001 -0.000002 -0.000001 -0.000001 -0.000001 -0.000000 -0.000002 8.077811 -0.486911 -3.806294 -0.018089 4.054259 0.511073 -0.018091 -4.054257 -0.511074 0.000000 0.000002 -0.000012 -0.000002 0.000001 -0.000001 -8.207806 -6.751702 -1.599540 -54.214165 14.461679 -19.051218 46.924499 6.976296 0.364540 -18.425142 1.294352 19.227377 0.440670 -0.000005 -0.000002 -0.000000 -0.000000 -0.000000 8.207792 -6.751705 -1.599544 -42.124495 0.737758 27.128033 18.715313 -4.963098 -2.405302 24.889959 -5.063554 -30.094001 -23.016037 -0.000005 -0.000001 -0.000000 0.000000 0.000000 
-30.437458 95.872459 -0.573132 25.745585 -7.075729 10.794270 -0.000001 10.181548 0.131519 8.320282 2.545127 -1.474477 15.796295 4.793784 -3.287938 15.789318 4.878253 -3.230500 0.000001 16.740347 -2.049024 12.115498 8.704751 1.368140 -0.000003 9.617858 1.684958 8.522812 48.199030 -3.230551 0.000004 22.037384 7.501062 -0.000002 0.000000 -0.000001 -4.570002 11.014873 -2.160841 -0.207211 0.904525 -25.977967 -90.162363 52.877303 49.048674 -0.000004 4.155256 0.000005 1.725082 2.468205 -14.228495 -2.464794 -1.573981 2.681906 -1.849249 -3.581796 -6.586140 4.645035 -8.656821 -0.231316 -2.646273 -1.527810 1.527809 -1.269832 0.126059 -2.098665 -1.994599 -1.151584 1.151571 0.000003 -0.000001 0.000003 -9.108300 -0.517863 2.259799 0.000011 -0.000008 -0.000024 -0.000002 0.000001 0.000053 -0.000012 -0.000004 0.000023 0.000001 -0.000000 0.000002 -9.532509 0.000005 -0.000006 0.000011 -0.000008 -0.000024 -0.000008 -0.000002 0.000042 0.000002 -0.000004 0.000012 -0.000001 0.000000 0.000000 -9.103592 -0.043116 -1.865104 0.000011 -0.000008 -0.000024 -0.000006 -0.000002 0.000042 0.000002 -0.000004 0.000012 -0.000000 -0.000000 -0.000001 -8.076693 -0.486737 -3.806305 0.000010 -0.000018 -0.000022 -0.000012 -0.000000 0.000118 0.000001 0.000002 0.000009 -0.000005 -0.000000 0.000000 4.570400 11.014686 -2.160816 1.407118 -3.688732 0.197170 26.647394 32.223142 -74.094664 0.000012 -8.240216 0.000000 -34.261270 -23.305586 -29.581611 2.466091 -1.576208 2.681705 -1.539958 3.690288 6.142354 3.946751 7.971377 0.752827 2.647894 -1.528749 1.528752 -0.575604 1.586256 2.542389 1.998917 -1.154096 1.154074 -0.000002 0.000003 -0.000000 9.109305 -0.518021 2.259910 -0.000002 0.000004 0.000000 -0.000003 0.000003 -0.000000 0.000002 0.000003 -0.000000 0.000002 0.000003 -0.000001 9.533391 0.000009 0.000007 -0.000006 -0.001923 0.015975 -0.000002 0.001927 -0.015969 0.000003 -0.000001 -0.000008 0.000000 0.000002 0.000003 9.104498 -0.043000 -1.865092 -0.000002 0.000004 0.000000 -0.000002 0.000003 0.000001 -0.000002 0.000003 0.000001 -0.000001 0.000003 0.000002 8.077795 -0.486894 -3.806292 -0.018091 4.054259 0.511076 -0.018093 -4.054261 -0.511073 -0.000003 0.000001 -0.000011 0.000001 0.000002 -0.000000 -8.207800 -6.751715 -1.599539 -50.243951 12.770983 -21.335418 40.242170 6.818116 0.324430 -15.702332 0.540994 19.007530 0.133605 0.000001 -0.000001 0.000000 0.000000 -0.000000 8.207796 -6.751708 -1.599545 -40.585046 2.840492 25.100320 12.747564 -5.984105 -2.350694 31.866463 -6.537723 -29.689285 -25.084319 -0.000005 0.000005 0.000000 0.000000 -0.000000 
-29.896538 97.710884 0.584713 27.062304 -5.107306 10.935308 0.000004 10.181550 0.131525 7.136277 2.307269 -0.999394 13.555707 4.693074 -1.987853 13.553658 4.710139 -1.935440 -0.000001 16.740351 -2.049012 12.406385 8.711728 0.868564 -0.000003 9.617853 1.684976 10.226662 47.713345 -3.761502 0.000003 22.037369 7.501084 0.000000 0.000001 0.000001 -4.570000 11.014871 -2.160832 -0.209068 0.886795 -26.733004 -87.249950 52.967437 43.717442 -0.000003 10.455583 0.000013 1.282379 3.202745 -12.261702 -2.464804 -1.573983 2.681906 -1.849248 -3.581794 -6.586143 4.645042 -8.656822 -0.231313 -2.646268 -1.527825 1.527813 -1.269827 0.126053 -2.098674 -1.994590 -1.151584 1.151580 0.000002 -0.000003 -0.000000 -9.108306 -0.517864 2.259803 0.000012 -0.000007 -0.000024 0.000002 0.000000 0.000052 -0.000008 -0.000004 0.000023 -0.000000 -0.000000 -0.000000 -9.532508 0.000020 -0.000004 0.000012 -0.000007 -0.000024 -0.000005 -0.000002 0.000042 0.000003 -0.000004 0.000012 -0.000000 -0.000000 -0.000000 -9.103613 -0.043101 -1.865102 0.000012 -0.000008 -0.000024 -0.000003 -0.000002 0.000042 0.000001 -0.000004 0.000013 -0.000000 0.000000 -0.000000 -8.076707 -0.486722 -3.806303 0.000011 -0.000018 -0.000023 -0.000009 0.000001 0.000118 0.000006 0.000002 0.000010 0.000002 -0.000000 -0.000000 4.570400 11.014678 -2.160811 0.922624 -1.551470 0.745104 37.537757 35.565580 -79.455850 -0.000000 -6.551976 0.000006 -32.953566 -21.587595 -28.975011 2.466096 -1.576223 2.681695 -1.539957 3.690285 6.142352 3.946756 7.971387 0.752833 2.647883 -1.528750 1.528751 -0.575602 1.586264 2.542396 1.998916 -1.154096 1.154074 0.000000 0.000001 0.000007 9.109290 -0.518005 2.259898 -0.000002 0.000000 0.000000 -0.000003 -0.000000 0.000000 -0.000002 0.000001 0.000001 -0.000001 0.000001 0.000000 9.533397 0.000008 0.000001 -0.000005 -0.001924 0.015975 0.000001 0.001921 -0.015969 0.000002 -0.000000 -0.000006 -0.000001 0.000001 0.000000 9.104491 -0.042998 -1.865104 -0.000002 0.000000 0.000000 -0.000003 -0.000000 0.000000 -0.000001 0.000001 0.000001 -0.000000 0.000001 0.000001 8.077799 -0.486911 -3.806298 -0.018089 4.054259 0.511074 -0.018091 -4.054262 -0.511070 -0.000001 0.000002 -0.000011 0.000000 0.000001 -0.000002 -8.207803 -6.751709 -1.599545 -47.397326 11.030453 -23.071735 33.795551 5.195032 0.269827 -12.971713 0.469739 19.137907 0.041793 0.000002 0.000007 0.000000 0.000000 -0.000000 8.207804 -6.751700 -1.599543 -39.413651 4.400052 23.275297 6.625279 -7.242211 -2.290440 35.814206 -7.050162 -29.408363 -25.177541 -0.000003 0.000004 0.000000 0.000000 0.000000 
